<svg width="243" height="99" viewBox="0 0 243 99" fill="none" xmlns="http://www.w3.org/2000/svg">
<g clip-path="url(#clip0_37_36)">
<path d="M209.58 46.06H238.08C244.07 46.06 244.07 59.06 238.08 59.06H209.58C210.07 66.41 209.98 74.99 201.81 77.79C198.72 78.85 190.82 78.66 189.53 79.51C188.82 79.98 187.23 85.18 186.01 86.99C173.76 105.19 144.36 100.42 138.96 78.99H78.1799C70.3099 104.48 35.6099 104.53 27.4099 79.22C16.5799 78.86 1.90989 80.95 0.519893 66.61C-1.18011 48.98 1.83989 28.56 0.629893 10.62C1.85989 5.42995 5.23989 1.65995 10.5299 0.499952L198.11 0.0299522C201.32 -0.530048 209.59 6.10995 209.59 8.54995V46.0499L209.58 46.06ZM197.58 64.56V14.56L196.08 13.06H13.5799V66.06H27.5799C32.4599 44.14 60.8199 38.7999 73.9999 57.1399C76.0599 60.0099 77.2699 65.53 80.0799 66.06L137.95 65.93C140.98 61.66 141.95 56.81 146.09 53.07C158.79 41.59 178.2 44.58 187.02 59.13C190.18 64.34 188.56 69.52 197.59 64.57L197.58 64.56ZM49.3099 59.29C39.7499 61.25 36.7899 73.29 42.5899 80.55C49.7199 89.48 65.0599 84.97 65.6499 73.58C66.1499 64.1 58.7499 57.35 49.3099 59.29ZM154.92 81.72C166.33 93.25 186.06 75.9799 173.98 63.16C161.9 50.34 142.33 69 154.92 81.72Z" fill="black"/>
</g>
<defs>
<clipPath id="clip0_37_36">
<rect width="242.58" height="98.23" fill="white"/>
</clipPath>
</defs>
</svg>
