<svg width="860" height="154" viewBox="0 0 860 154" fill="none" xmlns="http://www.w3.org/2000/svg">
<path d="M273.706 147.165H228.196V49.3047H270.811C295.216 49.3047 307.621 59.3097 307.621 75.6447C307.621 86.1747 303.136 94.0797 290.476 98.0397C306.046 100.8 311.581 108.84 311.581 120.3C311.581 137.685 297.466 147.165 273.721 147.165H273.706ZM266.851 90.7947C276.871 90.7947 281.236 88.0347 281.236 80.9247C281.236 73.8147 276.091 70.7847 266.071 70.7847H255.391V90.8097H266.866L266.851 90.7947ZM268.426 125.43C278.851 125.43 283.066 122.4 283.066 115.155C283.066 107.91 277.396 105.405 267.241 105.405H255.361V125.415H268.426V125.43Z" fill="white"/>
<path d="M327.661 49.3047H395.866V72.7497H354.841V89.6097H391.651V106.47H354.841V123.72H397.321V147.165H327.661V49.3047Z" fill="white"/>
<path d="M410.25 100.41C410.25 66.1647 430.56 47.5947 459.195 47.5947C469.095 47.5947 478.845 49.6947 485.85 54.0447L489.54 79.9947C481.89 74.7297 473.97 73.1397 465.795 73.1397C448.245 73.1397 438.48 81.9597 438.48 98.4297C438.48 117.66 451.275 123.72 466.185 123.72C474.63 123.72 482.01 121.875 489.93 117.405L487.02 143.355C479.235 147.045 470.265 149.145 459.315 149.145C435.57 149.145 410.235 137.685 410.235 100.41H410.25Z" fill="white"/>
<path d="M542.041 110.82L531.886 123.6V147.18H504.706V49.3047H531.886V89.8647L561.826 49.3047H590.461L561.301 86.1747L594.946 147.15H563.146L542.041 110.805V110.82Z" fill="white"/>
<path d="M606.556 49.3047H674.761V72.7497H633.736V89.6097H670.546V106.47H633.736V123.72H676.216V147.165H606.556V49.3047Z" fill="white"/>
<path d="M719.355 147.165H692.175V49.3047H731.355C754.05 49.3047 771.06 61.9497 771.06 85.5297C771.06 97.6497 765.525 107.52 756.81 113.85L778.185 147.165H745.065L730.29 120.96H719.34V147.165H719.355ZM726.345 104.355C737.82 104.355 742.83 99.6147 742.83 88.8147C742.83 78.0147 737.55 72.7497 726.345 72.7497H719.355V104.355H726.345Z" fill="white"/>
<path d="M789.001 142.815L786.496 117.525C796.126 122.265 808.126 125.43 818.686 125.43C827.656 125.43 831.346 122.4 831.346 117.795C831.346 114.495 829.636 112.26 821.326 109.365L814.591 106.995C797.971 101.205 789.121 93.2998 789.121 78.0148C789.121 57.7348 802.186 47.0698 826.591 47.0698C838.066 47.0698 848.626 50.3698 854.431 53.3848L856.546 77.7448C850.351 74.5798 837.811 70.8898 828.841 70.8898C820.531 70.8898 817.231 73.5298 817.231 77.8648C817.231 82.1998 819.871 84.3148 831.616 88.6648L836.101 90.3748C854.971 97.3498 859.711 105.12 859.711 117.765C859.711 137.52 843.481 148.845 819.871 148.845C808.651 148.845 797.176 146.865 789.001 142.785V142.815Z" fill="white"/>
<path d="M241.305 35.3399H239.07L229.335 12.3599H233.805L240.39 28.0499L247.245 12.3599H251.445L241.305 35.3399Z" fill="white"/>
<path d="M265.62 35.7898C259.59 35.7898 254.61 32.4598 254.61 23.7598C254.61 15.6898 259.5 11.8198 265.17 11.8198C271.8 11.8198 274.86 16.1998 274.86 24.5398H258.87C259.185 30.3748 262.395 32.0698 266.04 32.0698C268.965 32.0698 271.29 31.3348 273.39 29.9698L272.79 34.1698C270.915 35.2648 268.77 35.8048 265.62 35.8048V35.7898ZM258.945 21.3448H271.14C270.585 17.3398 268.62 15.3748 265.245 15.3748C262.41 15.3748 259.62 17.0098 258.945 21.3448Z" fill="white"/>
<path d="M285.211 19.1098V35.3398H281.011V12.3598H284.296L285.121 15.7798C287.176 13.1848 290.191 11.8198 293.806 11.8198V15.8848C290.881 15.8848 287.506 17.2048 285.211 19.1248V19.1098Z" fill="white"/>
<path d="M306.001 25.215L303.211 28.275V35.34H299.011V0H303.211V23.025L312.901 12.36H317.791L308.971 21.975L319.201 35.34H313.816L306.001 25.215Z" fill="white"/>
<path d="M333.031 35.7898C327.001 35.7898 322.021 32.4598 322.021 23.7598C322.021 15.6898 326.91 11.8198 332.58 11.8198C339.21 11.8198 342.271 16.1998 342.271 24.5398H326.281C326.596 30.3748 329.806 32.0698 333.451 32.0698C336.376 32.0698 338.701 31.3348 340.801 29.9698L340.201 34.1698C338.326 35.2648 336.181 35.8048 333.031 35.8048V35.7898ZM326.37 21.3448H338.566C338.011 17.3398 336.045 15.3748 332.67 15.3748C329.835 15.3748 327.045 17.0098 326.37 21.3448Z" fill="white"/>
<path d="M357.66 35.7898C351.63 35.7898 346.65 32.4598 346.65 23.7598C346.65 15.6898 351.54 11.8198 357.21 11.8198C363.84 11.8198 366.9 16.1998 366.9 24.5398H350.91C351.225 30.3748 354.435 32.0698 358.08 32.0698C361.005 32.0698 363.33 31.3348 365.43 29.9698L364.83 34.1698C362.955 35.2648 360.81 35.8048 357.66 35.8048V35.7898ZM350.985 21.3448H363.18C362.625 17.3398 360.66 15.3748 357.285 15.3748C354.45 15.3748 351.66 17.0098 350.985 21.3448Z" fill="white"/>
<path d="M377.25 19.1098V35.3398H373.05V12.3598H376.335L377.16 15.7798C379.215 13.1848 382.23 11.8198 385.845 11.8198V15.8848C382.92 15.8848 379.545 17.2048 377.25 19.1248V19.1098Z" fill="white"/>
<path d="M390.09 34.0203L389.4 29.7303C391.41 31.1853 394.2 32.0553 397.08 32.0553C399.96 32.0553 401.7 31.1403 401.7 28.7253C401.7 27.1353 401.01 26.4003 397.815 25.3953L396.405 24.9903C392.205 23.6253 390.285 22.1103 390.285 18.3303C390.285 14.0853 393.12 11.7603 398.145 11.7603C400.38 11.7603 402.72 12.3003 404.265 13.1253L404.82 17.1303C403.035 16.1253 400.44 15.4053 398.34 15.4053C395.505 15.4053 394.32 16.4553 394.32 18.2253C394.32 19.7703 395.055 20.5953 397.605 21.3753L398.925 21.7803C404.175 23.3703 405.735 24.9303 405.735 28.4403C405.735 33.2253 402.63 35.6853 397.29 35.6853C394.41 35.6853 391.665 35.0403 390.12 34.0053L390.09 34.0203Z" fill="white"/>
<path d="M411.421 34.0203L410.73 29.7303C412.74 31.1853 415.531 32.0553 418.411 32.0553C421.291 32.0553 423.03 31.1403 423.03 28.7253C423.03 27.1353 422.34 26.4003 419.145 25.3953L417.735 24.9903C413.535 23.6253 411.616 22.1103 411.616 18.3303C411.616 14.0853 414.45 11.7603 419.475 11.7603C421.71 11.7603 424.035 12.3003 425.595 13.1253L426.15 17.1303C424.365 16.1253 421.77 15.4053 419.655 15.4053C416.82 15.4053 415.635 16.4553 415.635 18.2253C415.635 19.7703 416.371 20.5953 418.921 21.3753L420.241 21.7803C425.491 23.3703 427.05 24.9303 427.05 28.4403C427.05 33.2253 423.945 35.6853 418.605 35.6853C415.725 35.6853 412.98 35.0403 411.435 34.0053L411.421 34.0203Z" fill="white"/>
<path d="M431.835 24.0752C431.835 15.9152 436.59 11.8052 442.845 11.8052C445.41 11.8052 447.78 12.2552 449.475 13.3052L450.03 17.1752C447.975 15.9452 445.545 15.5852 443.49 15.5852C438.87 15.5852 436.05 18.7352 436.05 23.5652C436.05 29.9102 439.71 31.9502 443.64 31.9502C445.785 31.9502 447.885 31.6352 450.03 30.5852L449.535 34.4102C447.525 35.4152 445.47 35.7752 442.77 35.7752C437.565 35.7752 431.85 33.0452 431.85 24.0602L431.835 24.0752Z" fill="white"/>
<path d="M460.11 18.195V35.34H455.91V0H460.11V14.355C461.985 12.675 463.995 11.805 466.545 11.805C471.75 11.805 474.855 14.625 474.855 21.84V35.34H470.655V22.8C470.655 17.415 468.285 15.87 465.63 15.87C463.665 15.87 462.015 16.56 460.11 18.195Z" fill="white"/>
<path d="M480.946 23.8949C480.946 16.6949 485.146 11.7749 491.821 11.7749C498.496 11.7749 502.741 16.2899 502.741 23.8049C502.741 31.3199 498.496 35.8799 491.731 35.8799C484.966 35.8799 480.946 31.4549 480.946 23.8949ZM498.541 23.7599C498.541 18.4649 495.796 15.4199 491.821 15.4199C487.846 15.4199 485.146 18.5249 485.146 23.7599C485.146 29.2799 488.026 32.2349 491.866 32.2349C495.706 32.2349 498.541 29.2199 498.541 23.7599Z" fill="white"/>
<path d="M507.21 23.8949C507.21 16.6949 511.41 11.7749 518.085 11.7749C524.76 11.7749 529.005 16.2899 529.005 23.8049C529.005 31.3199 524.76 35.8799 517.995 35.8799C511.23 35.8799 507.21 31.4549 507.21 23.8949ZM524.805 23.7599C524.805 18.4649 522.06 15.4199 518.085 15.4199C514.11 15.4199 511.41 18.5249 511.41 23.7599C511.41 29.2799 514.29 32.2349 518.13 32.2349C521.97 32.2349 524.805 29.2199 524.805 23.7599Z" fill="white"/>
<path d="M535.666 0H539.866V35.34H535.666V0Z" fill="white"/>
<path d="M149.565 83.0398C157.14 86.5648 166.2 90.2848 170.325 98.0248C178.2 112.83 168.795 129.465 156.225 137.97C134.415 152.715 105.6 151.335 80.2803 152.28C78.4803 152.34 65.1903 152.58 64.6353 152.235C64.3353 151.335 66.2703 150.435 66.7803 149.955C80.9703 139.065 95.9553 129.135 110.1 118.185C113.58 115.485 118.92 111.33 120.06 106.89C120.165 106.455 120.42 105.12 120.36 104.745C120.27 104.22 119.055 102.435 118.665 101.925C114.105 95.8498 106.455 93.7648 99.8553 90.7348C99.6003 90.6148 99.5403 90.2698 99.7503 90.0748C111.795 78.9298 126.96 71.7148 140.745 62.9398C146.925 59.0098 157.14 52.5148 160.62 46.0798C162.18 43.1848 161.565 42.4198 158.34 42.1798C151.23 41.6548 142.605 42.7798 135.48 43.6348C120.03 45.4948 104.34 48.2548 89.0253 51.0448C67.1403 55.0348 45.2703 59.4148 23.7753 65.0248C23.4753 65.0998 23.2203 64.8298 23.3103 64.5448C28.4253 47.5948 32.3253 30.2848 36.2103 13.0048C36.2553 12.8248 36.4053 12.7048 36.6003 12.7048H68.0853C90.4353 12.7198 112.935 12.0148 135.3 12.4948C155.745 12.9298 188.085 15.4198 186.375 43.1698C185.22 62.0548 163.62 73.1848 149.805 82.5748L149.61 83.0098L149.565 83.0398Z" fill="white"/>
<path d="M141.27 49.23L118.68 60.42C106.35 66.42 93.795 72.15 81.615 78.465C75.06 81.87 63.51 87.66 58.92 93.225C57.99 94.35 57.615 94.59 58.41 95.88C61.11 100.335 72.87 107.1 77.535 110.43C77.805 110.625 79.56 111.765 79.38 112.02C61.83 122.37 43.74 131.79 25.59 141.075C17.085 145.425 8.55 149.685 0 153.93C5.79 132.03 10.875 109.905 17.295 88.185C28.935 83.82 40.74 79.845 52.515 75.855C74.25 68.49 96.09 61.545 118.065 54.945C125.7 52.65 133.44 50.73 141.27 49.245V49.23Z" fill="white"/>
</svg>
