<?xml version="1.0" encoding="UTF-8"?>
<svg id="Layer_3" data-name="Layer 3" xmlns="http://www.w3.org/2000/svg" viewBox="0 0 4248.77 761.99">
  <defs>
    <style>
      .cls-1 {
        fill: #fd9f26;
      }

      .cls-2 {
        fill: #0f0200;
      }

      .cls-3 {
        fill: #1956e3;
      }
    </style>
  </defs>
  <g id="Layer_1" data-name="Layer 1">
    <g>
      <path class="cls-2" d="M1450.25,710.42h-217.36V242.31h203.5c116.55,0,175.78,47.88,175.78,126,0,50.4-21.42,88.2-81.9,107.1,74.34,13.23,100.8,51.66,100.8,106.47,0,83.16-67.41,128.52-180.82,128.52ZM1417.49,440.77c47.88,0,68.67-13.23,68.67-47.25s-24.57-48.51-72.45-48.51h-51.03v95.76h54.81ZM1425.05,606.47c49.77,0,69.93-14.49,69.93-49.14s-27.09-46.62-75.6-46.62h-56.7v95.76h62.37Z"/>
      <path class="cls-2" d="M1707.93,242.31h325.72v112.14h-195.94v80.64h175.78v80.64h-175.78v82.53h202.87v112.14h-332.65V242.31Z"/>
      <path class="cls-2" d="M2102.31,486.76c0-163.81,97.02-252.64,233.74-252.64,47.25,0,93.87,10.08,127.26,30.87l17.64,124.11c-36.54-25.2-74.34-32.76-113.4-32.76-83.79,0-130.41,42.21-130.41,120.96,0,91.98,61.11,120.96,132.3,120.96,40.32,0,75.6-8.82,113.4-30.24l-13.86,124.11c-37.17,17.64-80.01,27.72-132.3,27.72-113.4,0-234.37-54.81-234.37-233.11Z"/>
      <path class="cls-2" d="M2731.7,536.53l-48.51,61.11v112.77h-129.78V242.31h129.78v194.05l143.01-194.05h136.71l-139.23,176.41,160.66,291.7h-151.83l-100.8-173.89Z"/>
      <path class="cls-2" d="M3039.77,242.31h325.72v112.14h-195.94v80.64h175.78v80.64h-175.78v82.53h202.87v112.14h-332.65V242.31Z"/>
      <path class="cls-2" d="M3578.43,710.42h-129.78V242.31h187.12c108.36,0,189.64,60.48,189.64,173.26,0,57.96-26.46,105.21-68.04,135.45l102.06,159.4h-158.14l-70.56-125.37h-52.29v125.37ZM3611.82,505.66c54.81,0,78.75-22.68,78.75-74.34s-25.2-76.86-78.75-76.86h-33.39v151.21h33.39Z"/>
      <path class="cls-2" d="M3911.08,689.63l-11.97-120.96c45.99,22.68,103.32,37.8,153.72,37.8,42.84,0,60.48-14.49,60.48-36.54,0-15.75-8.19-26.46-47.88-40.32l-32.13-11.34c-79.38-27.72-121.59-65.52-121.59-138.6,0-97.02,62.37-148.05,178.93-148.05,54.81,0,105.21,15.75,132.93,30.24l10.08,116.55c-29.61-15.12-89.46-32.76-132.3-32.76-39.69,0-55.44,12.6-55.44,33.39s12.6,30.87,68.67,51.66l21.42,8.19c90.09,33.39,112.77,70.56,112.77,131.04,0,94.5-77.49,148.69-190.27,148.69-53.55,0-108.36-9.45-147.42-28.98Z"/>
    </g>
    <g>
      <path d="M1295.54,175.49h-10.69l-46.46-109.94h21.38l31.41,75.04,32.72-75.04h20.07l-48.43,109.94Z"/>
      <path d="M1411.6,177.68c-28.79,0-52.57-15.92-52.57-57.59,0-38.61,23.34-57.15,50.39-57.15,31.63,0,46.25,20.94,46.25,60.86h-76.35c1.53,27.92,16.8,35.99,34.25,35.99,13.96,0,25.09-3.49,35.12-10.03l-2.84,20.07c-8.94,5.24-19.2,7.85-34.25,7.85ZM1379.75,108.53h58.24c-2.62-19.2-12-28.58-28.14-28.58-13.52,0-26.83,7.85-30.1,28.58Z"/>
      <path d="M1505.18,97.84v77.66h-20.07v-109.94h15.71l3.93,16.36c9.82-12.43,24.21-18.98,41.45-18.98v19.41c-13.96,0-30.1,6.33-41.01,15.49Z"/>
      <path d="M1604.43,127.07l-13.31,14.62v33.81h-20.07V6.44h20.07v110.16l46.25-51.04h23.34l-42.1,46.03,48.86,63.92h-25.74l-37.3-48.43Z"/>
      <path d="M1733.58,177.68c-28.79,0-52.57-15.92-52.57-57.59,0-38.61,23.34-57.15,50.39-57.15,31.63,0,46.25,20.94,46.25,60.86h-76.35c1.53,27.92,16.8,35.99,34.25,35.99,13.96,0,25.09-3.49,35.12-10.03l-2.84,20.07c-8.94,5.24-19.2,7.85-34.25,7.85ZM1701.73,108.53h58.24c-2.62-19.2-12-28.58-28.14-28.58-13.52,0-26.83,7.85-30.1,28.58Z"/>
      <path d="M1851.15,177.68c-28.79,0-52.57-15.92-52.57-57.59,0-38.61,23.34-57.15,50.39-57.15,31.63,0,46.25,20.94,46.25,60.86h-76.35c1.53,27.92,16.8,35.99,34.25,35.99,13.96,0,25.09-3.49,35.12-10.03l-2.84,20.07c-8.94,5.24-19.2,7.85-34.25,7.85ZM1819.31,108.53h58.24c-2.62-19.2-12-28.58-28.14-28.58-13.52,0-26.83,7.85-30.1,28.58Z"/>
      <path d="M1944.74,97.84v77.66h-20.07v-109.94h15.71l3.93,16.36c9.82-12.43,24.21-18.98,41.45-18.98v19.41c-13.96,0-30.1,6.33-41.01,15.49Z"/>
      <path d="M2006.03,169.17l-3.27-20.5c9.6,6.98,22.9,11.12,36.65,11.12s22.03-4.36,22.03-15.92c0-7.63-3.27-11.12-18.54-15.92l-6.76-1.96c-20.07-6.54-29.23-13.74-29.23-31.85,0-20.29,13.52-31.41,37.52-31.41,10.69,0,21.81,2.62,29.23,6.54l2.62,19.2c-8.51-4.8-20.94-8.29-30.98-8.29-13.52,0-19.2,5.02-19.2,13.52,0,7.42,3.49,11.34,15.71,15.05l6.33,1.96c25.09,7.64,32.5,15.05,32.5,31.85,0,22.9-14.83,34.68-40.36,34.68-13.74,0-26.83-3.05-34.25-8.07Z"/>
      <path d="M2107.91,169.17l-3.27-20.5c9.6,6.98,22.9,11.12,36.65,11.12s22.03-4.36,22.03-15.92c0-7.63-3.27-11.12-18.54-15.92l-6.76-1.96c-20.07-6.54-29.23-13.74-29.23-31.85,0-20.29,13.52-31.41,37.52-31.41,10.69,0,21.81,2.62,29.23,6.54l2.62,19.2c-8.51-4.8-20.94-8.29-30.98-8.29-13.52,0-19.2,5.02-19.2,13.52,0,7.42,3.49,11.34,15.71,15.05l6.33,1.96c25.09,7.64,32.5,15.05,32.5,31.85,0,22.9-14.83,34.68-40.36,34.68-13.74,0-26.83-3.05-34.25-8.07Z"/>
      <path d="M2205.42,121.61c0-39.05,22.69-58.68,52.57-58.68,12.22,0,23.56,2.18,31.63,7.2l2.62,18.54c-9.82-5.89-21.38-7.64-31.19-7.64-22.03,0-35.56,15.05-35.56,38.17,0,30.32,17.45,40.14,36.21,40.14,10.25,0,20.29-1.53,30.54-6.54l-2.4,18.32c-9.6,4.8-19.41,6.54-32.28,6.54-24.87,0-52.14-13.09-52.14-56.06Z"/>
      <path d="M2340.45,93.47v82.02h-20.07V6.44h20.07v68.71c8.94-8.07,18.54-12.22,30.76-12.22,24.87,0,39.7,13.52,39.7,47.99v64.57h-20.07v-59.99c0-25.74-11.34-33.16-24-33.16-9.38,0-17.23,3.27-26.39,11.12Z"/>
      <path d="M2439.92,120.74c0-34.47,20.07-58.03,51.92-58.03s52.13,21.6,52.13,57.59-20.29,57.81-52.57,57.81-51.48-21.16-51.48-57.37ZM2523.91,120.09c0-25.3-13.09-39.92-32.07-39.92s-31.85,14.83-31.85,39.92c0,26.39,13.74,40.57,32.07,40.57s31.85-14.4,31.85-40.57Z"/>
      <path d="M2565.36,120.74c0-34.47,20.07-58.03,51.92-58.03s52.13,21.6,52.13,57.59-20.29,57.81-52.57,57.81-51.48-21.16-51.48-57.37ZM2649.34,120.09c0-25.3-13.09-39.92-32.07-39.92s-31.85,14.83-31.85,39.92c0,26.39,13.74,40.57,32.07,40.57s31.85-14.4,31.85-40.57Z"/>
      <path d="M2701.26,6.44h20.07v169.06h-20.07V6.44Z"/>
    </g>
    <g>
      <path class="cls-3" d="M803.8,380.49c40.72,19,89.38,38.99,111.53,80.7,42.35,79.71-8.2,169.26-75.79,215.04-117.18,79.37-272.08,71.94-408.12,77.05-9.66.36-81.06,1.6-84.11-.23-1.63-4.88,8.77-9.65,11.54-12.29,76.27-58.61,156.77-112.07,232.77-171.03,18.72-14.53,47.41-36.93,53.5-60.77.6-2.33,1.95-9.52,1.63-11.52-.45-2.82-7.05-12.4-9.12-15.17-24.52-32.7-65.62-43.95-101.1-60.22-1.38-.64-1.67-2.52-.55-3.55,64.75-59.99,146.19-98.85,220.28-146.02,33.19-21.13,88.08-56.09,106.77-90.77,8.38-15.56,5.12-19.68-12.28-20.97-38.2-2.82-84.58,3.24-122.86,7.86-83.05,10.02-167.38,24.85-249.67,39.88-117.57,21.48-235.1,45.08-350.66,75.24-1.59.41-3-1.05-2.53-2.62C152.53,189.84,173.5,96.66,194.38,3.66c.22-.97,1.07-1.65,2.07-1.65l169.18-.05c120.1.14,240.99-3.63,361.21-1.05,109.89,2.36,283.68,15.76,274.51,165.11-6.24,101.65-122.24,161.6-196.53,212.12l-1.02,2.35Z"/>
      <path class="cls-1" d="M759.24,198.48l-121.36,60.19c-66.3,32.29-133.7,63.11-199.2,97.12-35.25,18.3-97.31,49.51-121.97,79.45-4.96,6.02-6.99,7.31-2.76,14.32,14.48,24,77.74,60.37,102.79,78.29,1.48,1.06,10.87,7.18,9.88,8.54-94.32,55.74-191.56,106.44-289.07,156.39-45.67,23.39-91.6,46.34-137.53,69.21,31.1-117.91,58.43-236.95,92.97-353.89,62.53-23.5,126.01-44.88,189.31-66.35,116.79-39.62,234.15-77.06,352.27-112.56,41.02-12.33,82.58-22.68,124.7-30.72Z"/>
    </g>
  </g>
</svg>